#!OML:ASF Y:\EmotionMaleHayes\Project 1\Capture day 1\Session 1\Male1.ASF
:FULLY-SPECIFIED
:DEGREES
496
root 46.0172 17.1762 -0.0582172 796.897 86.0792 799.205
lowerback 6.17195 2.91146 -5.8599
upperback 2.3657 3.58317 -0.899482
thorax -1.30554 1.80405 2.08414
lowerneck -21.6052 0.747429 3.02722
upperneck 25.3162 0.764501 -1.77183
head 11.9216 0.497165 -1.02719
rclavicle 2.60284e-015 -1.14301e-014
rhumerus -34.5021 15.0729 -85.1001
rradius 67.1998
rwrist -10.7283
rhand -13.6375 -31.8602
rfingers 7.12502
rthumb 12.4787 -61.4677
lclavicle 2.60284e-015 -1.14301e-014
lhumerus -44.1651 -3.17501 81.6834
lradius 25.0448
lwrist -14.5321
lhand -9.96151 -22.3642
lfingers 7.12502
lthumb 16.0207 6.99335
rfemur 5.41416 -0.676784 10.5974
rtibia 5.85581
rfoot -11.447 1.63081
rtoes 11.021
lfemur 14.1837 -2.37998 -22.1959
ltibia -0.246951
lfoot -13.8883 10.9289
ltoes 1.38631
497
root 46.0231 17.178 -0.0610596 799.375 86.3444 801.609
lowerback 6.11214 2.8533 -5.62524
upperback 2.39752 3.52509 -0.839486
thorax -1.22543 1.77277 2.02475
lowerneck -21.5349 0.656965 2.71856
upperneck 25.1969 0.685591 -1.57689
head 11.8573 0.456079 -0.914608
rclavicle -8.81486e-015 3.57812e-015
rhumerus -34.5756 15.024 -85.0208
rradius 66.8427
rwrist -10.788
rhand -13.4076 -32.2582
rfingers 7.12502
rthumb 12.7003 -61.8521
lclavicle -8.81486e-015 3.57812e-015
lhumerus -43.9234 -3.16206 81.7544
lradius 25.5522
lwrist -14.0333
lhand -10.2296 -22.3462
lfingers 7.12502
lthumb 15.7625 7.03194
rfemur 5.36675 -1.06096 10.7905
rtibia 5.95531
rfoot -11.488 1.78969
rtoes 11.0636
lfemur 14.1359 -2.37495 -21.9223
ltibia -0.277687
lfoot -13.7779 10.7145
ltoes 0.939179
498
root 46.0129 17.1802 -0.0572359 800.535 86.7583 802.715
lowerback 6.34408 2.8613 -5.24265
upperback 2.34856 3.53957 -0.752945
thorax -1.39004 1.7843 1.8868
lowerneck -21.4452 0.586079 2.49433
upperneck 25.0791 0.608085 -1.38944
head 11.7907 0.423363 -0.818977
rclavicle 5.34234e-015 -1.30204e-014
rhumerus -34.7364 14.8989 -84.9778
rradius 66.4662
rwrist -10.9178
rhand -13.488 -32.424
rfingers 7.12502
rthumb 12.6228 -62.0226
lclavicle 5.34234e-015 -1.30204e-014
lhumerus -43.6161 -3.15014 81.7661
lradius 25.9114
lwrist -13.688
lhand -10.5709 -22.561
lfingers 7.12502
lthumb 15.4339 6.84277
rfemur 5.22277 -0.949391 11.359
rtibia 6.04042
rfoot -11.584 1.4243
rtoes 10.3489
lfemur 13.9939 -2.42191 -21.3586
ltibia -0.240359
lfoot -13.638 10.6245
ltoes 0.474268
499
root 46.015 17.1783 -0.0569691 803.186 86.4563 805.387
lowerback 6.52509 2.92195 -5.52198
upperback 2.31127 3.58965 -0.899756
thorax -1.53928 1.81413 1.87568
lowerneck -21.3695 0.500603 2.42223
upperneck 25.0561 0.493026 -1.31373
head 11.7639 0.375609 -0.797019
rclavicle -1.77291e-014 9.14409e-015
rhumerus -34.9758 14.8209 -85.0209
rradius 65.9695
rwrist -11.0887
rhand -13.7359 -32.3764
rfingers 7.12502
rthumb 12.3837 -61.9896
lclavicle -1.77291e-014 9.14409e-015
lhumerus -43.2965 -3.33329 81.831
lradius 26.1754
lwrist -13.1822
lhand -10.8596 -22.7817
lfingers 7.12502
lthumb 15.1557 6.64328
rfemur 5.27706 -1.05229 10.9367
rtibia 6.02821
rfoot -11.5826 1.37556
rtoes 10.0344
lfemur 14.0144 -2.46878 -21.7462
ltibia -0.244599
lfoot -13.6623 10.5643
ltoes 0.596861
500
root 46.0182 17.1777 -0.0472446 803.515 86.408 805.687
lowerback 6.60422 2.99338 -5.66421
upperback 2.25875 3.66715 -0.947076
thorax -1.64861 1.85611 1.89286
lowerneck -21.2957 0.417362 2.33943
upperneck 25.0627 0.39923 -1.28275
head 11.7496 0.330858 -0.786525
rclavicle -1.66855e-014 2.39536e-014
rhumerus -35.1709 14.808 -85.1069
rradius 65.3978
rwrist -11.0483
rhand -13.861 -32.3515
rfingers 7.12502
rthumb 12.2631 -61.9719
lclavicle -1.66855e-014 2.39536e-014
lhumerus -42.9953 -3.60916 81.9591
lradius 26.4523
lwrist -12.5926
lhand -11.2401 -23.0263
lfingers 7.12502
lthumb 14.7892 6.42598
rfemur 5.27383 -0.59119 11.0256
rtibia 5.98937
rfoot -11.687 0.955232
rtoes 10.411
lfemur 13.993 -2.50687 -21.6963
ltibia -0.282094
lfoot -13.7414 10.5145
ltoes 0.915502
501
root 46.0179 17.178 -0.0467962 804.942 86.5738 807.074
lowerback 6.57847 2.96409 -5.53986
upperback 2.32728 3.6422 -0.913134
thorax -1.55636 1.84085 1.86483
lowerneck -21.4249 0.391813 2.17493
upperneck 25.064 0.397064 -1.22328
head 11.7748 0.320239 -0.737402
rclavicle 2.6339e-015 -9.0447e-015
rhumerus -35.1255 14.8281 -85.1119
rradius 64.8735
rwrist -10.9422
rhand -13.764 -32.6099
rfingers 7.12502
rthumb 12.3567 -62.2247
lclavicle 2.6339e-015 -9.0447e-015
lhumerus -42.5398 -3.77551 82.1373
lradius 26.8113
lwrist -11.9868
lhand -11.6713 -23.2862
lfingers 7.12502
lthumb 14.3737 6.19615
rfemur 5.22077 -0.554511 11.2413
rtibia 6.06577
rfoot -11.7559 0.879489
rtoes 10.7648
lfemur 13.9423 -2.51917 -21.4541
ltibia -0.290052
lfoot -13.7909 10.3759
ltoes 1.35228
502
root 46.027 17.1755 -0.051287 808.735 86.2052 810.904
lowerback 6.75696 2.89314 -5.94574
upperback 2.28821 3.5079 -1.02556
thorax -1.70151 1.77898 1.97563
lowerneck -21.3991 0.417044 2.16859
upperneck 25.1167 0.444279 -1.24086
head 11.7911 0.339798 -0.735266
rclavicle -1.74061e-014 1.81888e-014
rhumerus -35.367 14.9603 -85.2363
rradius 64.3884
rwrist -11.0466
rhand -13.8577 -32.7103
rfingers 7.12502
rthumb 12.2663 -62.3305
lclavicle -1.74061e-014 1.81888e-014
lhumerus -42.3945 -3.92086 82.3051
lradius 27.3162
lwrist -11.2814
lhand -11.9034 -23.3539
lfingers 7.12502
lthumb 14.1501 6.14422
rfemur 5.37327 -0.919085 10.6609
rtibia 6.02303
rfoot -11.7356 1.05583
rtoes 10.72
lfemur 13.9807 -2.46585 -21.9247
ltibia -0.279902
lfoot -13.5714 10.2319
ltoes 0.0891589
503
root 46.0387 17.1749 -0.0450085 810.446 86.3919 812.613
lowerback 6.56545 2.82251 -5.91498
upperback 2.44003 3.4401 -0.965537
thorax -1.43432 1.73686 2.04121
lowerneck -21.3533 0.488905 2.27643
upperneck 24.8947 0.526231 -1.33104
head 11.6988 0.370796 -0.773262
rclavicle -1.88473e-014 3.38928e-014
rhumerus -35.3007 15.1487 -85.3296
rradius 63.8191
rwrist -11.3048
rhand -14.0822 -32.5233
rfingers 7.12502
rthumb 12.0499 -62.1564
lclavicle -1.88473e-014 3.38928e-014
lhumerus -41.9808 -3.82205 82.3341
lradius 27.8817
lwrist -10.7835
lhand -12.0714 -23.3024
lfingers 7.12502
lthumb 13.9882 6.20699
rfemur 5.49569 -0.736962 10.9737
rtibia 5.87175
rfoot -11.7937 0.73418
rtoes 10.4226
lfemur 14.0122 -2.43398 -21.6205
ltibia -0.269676
lfoot -13.4788 10.0907
ltoes -0.572053
504
root 46.0456 17.1726 -0.0336649 810.834 87.1091 813.014
lowerback 6.46989 2.80833 -5.35939
upperback 2.53339 3.46685 -0.758445
thorax -1.26921 1.74474 1.9516
lowerneck -21.3733 0.467905 2.13205
upperneck 24.8216 0.509921 -1.21911
head 11.6736 0.362671 -0.709944
rclavicle 7.42958e-015 3.57812e-015
rhumerus -35.3745 15.1427 -85.401
rradius 63.2967
rwrist -11.3648
rhand -14.1675 -32.2959
rfingers 7.12502
rthumb 11.9676 -61.9338
lclavicle 7.42958e-015 3.57812e-015
lhumerus -41.6725 -3.91886 82.4668
lradius 28.5622
lwrist -10.1303
lhand -12.1686 -23.1501
lfingers 7.12502
lthumb 13.8946 6.36568
rfemur 5.53324 -0.210995 12.0607
rtibia 5.82461
rfoot -11.9529 0.161877
rtoes 9.98388
lfemur 14.0802 -2.47178 -20.6362
ltibia -0.282355
lfoot -13.6286 9.90623
ltoes 0.65174
505
root 46.0478 17.1709 -0.0365042 813.442 87.0907 815.568
lowerback 6.56591 2.80978 -5.3064
upperback 2.45193 3.46068 -0.811121
thorax -1.40026 1.74571 1.8611
lowerneck -21.3631 0.353701 1.81952
upperneck 24.9166 0.377559 -0.927791
head 11.7043 0.314063 -0.570508
rclavicle -2.29845e-015 -2.80286e-014
rhumerus -35.7009 14.9856 -85.5175
rradius 62.801
rwrist -11.1507
rhand -14.1379 -32.1624
rfingers 7.12502
rthumb 11.9961 -61.7987
lclavicle -2.29845e-015 -2.80286e-014
lhumerus -41.569 -4.37001 82.7624
lradius 29.3095
lwrist -9.14964
lhand -12.0101 -22.7967
lfingers 7.12502
lthumb 14.0473 6.70859
rfemur 5.44723 -0.301457 12.0269
rtibia 5.91008
rfoot -12.0412 0.0963808
rtoes 8.94547
lfemur 13.9921 -2.479 -20.6541
ltibia -0.241564
lfoot -13.4573 9.78533
ltoes -0.300235
506
root 46.0514 17.1717 -0.0332751 814.871 86.4241 816.92
lowerback 6.53922 2.8209 -6.05321
upperback 2.42776 3.43095 -1.00214
thorax -1.43695 1.73268 2.0819
lowerneck -21.247 0.326207 1.80542
upperneck 24.7898 0.350151 -0.952621
head 11.6325 0.295915 -0.581497
rclavicle -1.60022e-014 -2.66371e-014
rhumerus -35.9017 14.8937 -85.6132
rradius 62.2637
rwrist -10.7704
rhand -13.8849 -32.2084
rfingers 7.12502
rthumb 12.2401 -61.8302
lclavicle -1.60022e-014 -2.66371e-014
lhumerus -41.2941 -4.74198 83.0355
lradius 29.845
lwrist -8.32121
lhand -12.1372 -22.646
lfingers 7.12502
lthumb 13.9248 6.86772
rfemur 5.38006 -0.2634 11.2272
rtibia 5.92363
rfoot -12.3363 -0.0729811
rtoes 6.61181
lfemur 13.8253 -2.47523 -21.4134
ltibia -0.131166
lfoot -13.3702 9.70058
ltoes -1.12019
